<?xml version="1.0" encoding="utf-8"?>
<!-- Generator: Adobe Illustrator 18.1.1, SVG Export Plug-In . SVG Version: 6.00 Build 0)  -->
<svg version="1.1" id="Layer_1" xmlns="http://www.w3.org/2000/svg" xmlns:xlink="http://www.w3.org/1999/xlink" x="0px" y="0px"
	 viewBox="0 0 50 50" enable-background="new 0 0 50 50" xml:space="preserve">
<g>
	<path fill="#000000" d="M24.5,21.5c-1.8-3.2-3.7-5.7-3.8-5.9c-2.9,1.3-5,4-5.7,7.2C15.4,22.8,19.6,22.9,24.5,21.5z"/>
	<path fill="#000000" d="M22.7,15C22.6,15,22.6,15,22.7,15C22.6,15,22.7,15,22.7,15C22.7,15,22.7,15,22.7,15z"/>
	<path fill="#000000" d="M31.9,17.2c-1.8-1.6-4.2-2.6-6.8-2.6c-0.8,0-1.6,0.1-2.4,0.3c0.2,0.2,2.1,2.8,3.8,6
		C30.4,19.5,31.9,17.3,31.9,17.2z"/>
	<path fill="#000000" d="M25.8,25c0.1,0,0.3-0.1,0.4-0.1c-0.3-0.6-0.5-1.2-0.8-1.7c-5.3,1.6-10.3,1.5-10.5,1.5c0,0.1,0,0.2,0,0.3
		c0,2.6,1,5,2.6,6.8c0,0,0,0,0,0S20.3,26.8,25.8,25z"/>
	<path fill="#000000" d="M28.8,26.1c1.3,3.7,1.9,6.7,2,7.3c2.3-1.6,3.9-4,4.4-6.9C35,26.5,32.1,25.6,28.8,26.1z"/>
	<path fill="#000000" d="M27.3,22.5c0.2,0.5,0.5,1,0.7,1.5c0.1,0.2,0.1,0.4,0.2,0.5c3.5-0.4,7,0.3,7.1,0.3c0-2.4-0.9-4.7-2.3-6.4
		C33,18.4,31.4,20.8,27.3,22.5z"/>
	<path fill="#000000" d="M25.1,0.9c-13.3,0-24,10.7-24,24c0,13.3,10.7,24,24,24c13.3,0,24-10.7,24-24C49.1,11.7,38.4,0.9,25.1,0.9z
		 M36.9,27.3c-0.2,0.8-0.4,1.5-0.7,2.3c-0.3,0.7-0.7,1.4-1.1,2c-0.4,0.6-0.9,1.2-1.5,1.8c-0.5,0.5-1.1,1-1.8,1.5
		c-0.6,0.4-1.3,0.8-2,1.1c-0.7,0.3-1.5,0.5-2.3,0.7c-0.8,0.2-1.6,0.2-2.4,0.2c-0.8,0-1.6-0.1-2.4-0.2c-0.8-0.2-1.5-0.4-2.3-0.7
		c-0.7-0.3-1.4-0.7-2-1.1c-0.6-0.4-1.2-0.9-1.8-1.5c-0.5-0.5-1-1.1-1.5-1.8c-0.4-0.6-0.8-1.3-1.1-2c-0.3-0.7-0.5-1.5-0.7-2.3
		c-0.2-0.8-0.2-1.6-0.2-2.4c0-0.8,0.1-1.6,0.2-2.4c0.2-0.8,0.4-1.5,0.7-2.3c0.3-0.7,0.7-1.4,1.1-2c0.4-0.6,0.9-1.2,1.5-1.8
		c0.5-0.5,1.1-1,1.8-1.5c0.6-0.4,1.3-0.8,2-1.1c0.7-0.3,1.5-0.5,2.3-0.7c0.8-0.2,1.6-0.2,2.4-0.2c0.8,0,1.6,0.1,2.4,0.2
		c0.8,0.2,1.5,0.4,2.3,0.7c0.7,0.3,1.4,0.7,2,1.1c0.6,0.4,1.2,0.9,1.8,1.5c0.5,0.5,1,1.1,1.5,1.8c0.4,0.6,0.8,1.3,1.1,2
		c0.3,0.7,0.5,1.5,0.7,2.3c0.2,0.8,0.2,1.6,0.2,2.4C37.1,25.7,37,26.5,36.9,27.3z"/>
	<path fill="#000000" d="M26.9,26.6c-6,2.1-8,6.4-8,6.4c1.7,1.4,3.9,2.2,6.3,2.2c1.4,0,2.8-0.3,4-0.8C29,33.4,28.4,30.3,26.9,26.6
		C26.9,26.6,26.9,26.6,26.9,26.6z"/>
	<path fill="#000000" d="M18.8,33C18.8,33,18.8,33,18.8,33c-0.1-0.1-0.2-0.1-0.2-0.2C18.7,32.9,18.8,33,18.8,33z"/>
</g>
</svg>
