<?xml version="1.0" encoding="utf-8"?>
<!-- Generator: Adobe Illustrator 18.1.1, SVG Export Plug-In . SVG Version: 6.00 Build 0)  -->
<svg version="1.1" id="Layer_1" xmlns="http://www.w3.org/2000/svg" xmlns:xlink="http://www.w3.org/1999/xlink" x="0px" y="0px"
	 viewBox="0 0 200 200" enable-background="new 0 0 200 200" xml:space="preserve">
<g>
	<path fill="#FFFFFF" d="M151.7,79.3l-7.4-27.2c-0.3-1.1-0.5-2.3-0.5-3.5l-0.3-23.9c0-0.6-0.5-1.2-1.1-1.3L101,15.2
		c-0.7-0.1-1.5-0.1-2.2,0L56.7,24c-0.6,0.1-1.1,0.7-1.1,1.3l0.3,23.8c0,1.2-0.1,2.5-0.4,3.6l-7.1,27.4c-0.3,1.1-0.3,2.3,0,3.4
		l7.4,27.2c0.3,1.1,0.5,2.3,0.5,3.5l0.3,23.9c0,0.6,0.5,1.2,1.1,1.3l41.5,8.2c0.7,0.1,1.5,0.1,2.2,0l42.1-8.8
		c0.6-0.1,1.1-0.7,1.1-1.3l-0.3-24.1c0-1.2,0.1-2.5,0.5-3.7l7.1-27.1C152,81.6,152,80.4,151.7,79.3z M121.8,105.9H112
		c-0.2,0-0.3-0.1-0.4-0.2L89.3,75.2c-0.3-0.4-1-0.2-1,0.3v29.9c0,0.3-0.2,0.6-0.6,0.6h-9.3c-0.3,0-0.6-0.2-0.6-0.6V57.5
		c0-0.3,0.2-0.6,0.6-0.6h9.9c0.2,0,0.3,0.1,0.4,0.2l21.4,29.3c0.3,0.4,1,0.2,1-0.3V57.5c0-0.3,0.2-0.6,0.6-0.6h9.3
		c0.3,0,0.6,0.2,0.6,0.6v48.5H121.8z"/>
	<path fill="#FFFFFF" d="M56.7,175.2h86.9c0.3,0,0.6,0.2,0.6,0.6v8.7c0,0.3-0.2,0.6-0.6,0.6H56.7c-0.3,0-0.6-0.2-0.6-0.6v-8.7
		C56.2,175.4,56.4,175.2,56.7,175.2z"/>
</g>
</svg>
