<?xml version="1.0" encoding="utf-8"?>
<!-- Generator: Adobe Illustrator 18.1.1, SVG Export Plug-In . SVG Version: 6.00 Build 0)  -->
<svg version="1.1" id="Layer_1" xmlns="http://www.w3.org/2000/svg" xmlns:xlink="http://www.w3.org/1999/xlink" x="0px" y="0px"
	 viewBox="0 0 50 50" enable-background="new 0 0 50 50" xml:space="preserve">
<g>
	<path fill="##000000" d="M25.1,0.9c-13.3,0-24,10.8-24,24s10.7,24,24,24c13.2,0,24-10.8,24-24S38.4,0.9,25.1,0.9z M35.5,34.6
		c0,1.4-1.1,2.5-2.5,2.5H17c-1.4,0-2.5-1.1-2.5-2.5V15.1c0-1.4,1.1-2.5,2.5-2.5h16c1.4,0,2.5,1.1,2.5,2.5V34.6z"/>
	<path fill="##000000" d="M33,14.3H17c-0.4,0-0.7,0.3-0.7,0.7v19.5c0,0.4,0.3,0.7,0.7,0.7h16c0.4,0,0.7-0.3,0.7-0.7V15.1
		C33.7,14.7,33.4,14.3,33,14.3z M18.6,18.2c0-0.4,0.3-0.7,0.7-0.7h5.2c0.4,0,0.7,0.3,0.7,0.7v0.4c0,0.4-0.3,0.7-0.7,0.7h-5.2
		c-0.4,0-0.7-0.3-0.7-0.7V18.2z M30.8,31.5c0,0.4-0.3,0.7-0.7,0.7H19.4c-0.4,0-0.7-0.3-0.7-0.7v-0.4c0-0.4,0.3-0.7,0.7-0.7h10.7
		c0.4,0,0.7,0.3,0.7,0.7V31.5z M30.8,27.1c0,0.4-0.3,0.7-0.7,0.7H19.4c-0.4,0-0.7-0.3-0.7-0.7v-0.4c0-0.4,0.3-0.7,0.7-0.7h10.7
		c0.4,0,0.7,0.3,0.7,0.7V27.1z M30.8,22.8c0,0.4-0.3,0.7-0.7,0.7H19.4c-0.4,0-0.7-0.3-0.7-0.7v-0.4c0-0.4,0.3-0.7,0.7-0.7h10.7
		c0.4,0,0.7,0.3,0.7,0.7V22.8z"/>
</g>
</svg>
